name D:\school\WTK\thesis\model\3dpredictsim\Results\MidTarsalJoint\Fal_s1_bCst_PF_Natali2010_ls150_MT_k500_MTP_T5_ig24_PFx2.mot
datacolumns 128
datarows 4
range 0.56531132 0.59923000
endheader
time	pelvis_tilt	pelvis_list	pelvis_rotation	pelvis_tx	pelvis_ty	pelvis_tz	hip_flexion_l	hip_adduction_l	hip_rotation_l	hip_flexion_r	hip_adduction_r	hip_rotation_r	knee_angle_l	knee_angle_r	ankle_angle_l	ankle_angle_r	subtalar_angle_l	subtalar_angle_r	mtj_angle_l	mtj_angle_r	mtp_angle_l	mtp_angle_r	lumbar_extension	lumbar_bending	lumbar_rotation	arm_flex_l	arm_add_l	arm_rot_l	arm_flex_r	arm_add_r	arm_rot_r	elbow_flex_l	elbow_flex_r	pro_sup_l	pro_sup_r	glut_med1_l/activation	glut_med2_l/activation	glut_med3_l/activation	glut_min1_l/activation	glut_min2_l/activation	glut_min3_l/activation	semimem_l/activation	semiten_l/activation	bifemlh_l/activation	bifemsh_l/activation	sar_l/activation	add_long_l/activation	add_brev_l/activation	add_mag1_l/activation	add_mag2_l/activation	add_mag3_l/activation	tfl_l/activation	pect_l/activation	grac_l/activation	glut_max1_l/activation	glut_max2_l/activation	glut_max3_l/activation	iliacus_l/activation	psoas_l/activation	quad_fem_l/activation	gem_l/activation	peri_l/activation	rect_fem_l/activation	vas_med_l/activation	vas_int_l/activation	vas_lat_l/activation	med_gas_l/activation	lat_gas_l/activation	soleus_l/activation	tib_post_l/activation	flex_dig_l/activation	flex_hal_l/activation	tib_ant_l/activation	per_brev_l/activation	per_long_l/activation	per_tert_l/activation	ext_dig_l/activation	ext_hal_l/activation	ercspn_l/activation	intobl_l/activation	extobl_l/activation	glut_med1_r/activation	glut_med2_r/activation	glut_med3_r/activation	glut_min1_r/activation	glut_min2_r/activation	glut_min3_r/activation	semimem_r/activation	semiten_r/activation	bifemlh_r/activation	bifemsh_r/activation	sar_r/activation	add_long_r/activation	add_brev_r/activation	add_mag1_r/activation	add_mag2_r/activation	add_mag3_r/activation	tfl_r/activation	pect_r/activation	grac_r/activation	glut_max1_r/activation	glut_max2_r/activation	glut_max3_r/activation	iliacus_r/activation	psoas_r/activation	quad_fem_r/activation	gem_r/activation	peri_r/activation	rect_fem_r/activation	vas_med_r/activation	vas_int_r/activation	vas_lat_r/activation	med_gas_r/activation	lat_gas_r/activation	soleus_r/activation	tib_post_r/activation	flex_dig_r/activation	flex_hal_r/activation	tib_ant_r/activation	per_brev_r/activation	per_long_r/activation	per_tert_r/activation	ext_dig_r/activation	ext_hal_r/activation	ercspn_r/activation	intobl_r/activation	extobl_r/activation	
          0.56531132	         -2.92974386	          2.07518618	         -5.38189314	          0.70663916	          0.91969286	          0.00191967	         29.20390552	          3.34501561	         -2.76029763	        -16.93243737	         -1.09270852	          6.73527275	        -11.66445313	         -8.26092828	          5.28790994	         -1.90909742	         -3.08845883	          9.54929736	         -0.09969510	          2.55012117	          0.58699634	         17.24712754	         -2.12936703	         -0.36589019	          2.02640589	         -5.46561440	        -13.46136033	          5.25085245	          4.36551444	        -13.45854032	         15.50400802	         17.68006190	         36.33554392	         86.51662706	         86.51662706	          0.05942185	          0.05942191	          0.05000036	          0.05942213	          0.05942209	          0.05940988	          0.12298778	          0.05942726	          0.19946661	          0.05000204	          0.05000055	          0.15201348	          0.33344673	          0.10866834	          0.18597730	          0.10483016	          0.05000038	          0.06999914	          0.12509229	          0.05000125	          0.05000098	          0.13241663	          0.05942261	          0.05000859	          0.32336620	          0.27563735	          0.12850232	          0.05313185	          0.13574416	          0.13421123	          0.12005968	          0.06249748	          0.05950997	          0.05902668	          0.05000010	          0.05000204	          0.05000077	          0.52838610	          0.25544471	          0.15929309	          0.18975865	          0.46782088	          0.23247336	          0.05832161	          0.10896286	          0.09717652	          0.26739566	          0.09973844	          0.06882315	          0.29549022	          0.19594716	          0.10116578	          0.05000247	          0.05000056	          0.05000039	          0.05860872	          0.10676512	          0.10070335	          0.09834213	          0.05000804	          0.05001415	          0.05000236	          0.30825231	          0.09154630	          0.05000676	          0.05000508	          0.05000242	          0.05000320	          0.37195318	          0.60354327	          0.05000074	          0.05000158	          0.05000071	          0.21522001	          0.06435142	          0.05048644	          0.05946704	          0.26729173	          0.36550677	          0.30592898	          0.26608822	          0.25370555	          0.33512404	          0.05000008	          0.05939418	          0.12460313	          0.05000039	          0.05000010	          0.05000042	          0.05000009	          0.05000119	          0.06447353	
          0.57661755	         -2.92514338	          2.16431440	         -5.63839590	          0.72381849	          0.91882145	          0.00170855	         28.53464659	          3.72277810	         -2.52564683	        -16.74228170	         -1.38623911	          6.53500643	        -11.93534437	        -10.27395646	          4.62685601	         -2.60364427	         -3.46791413	         10.54458536	         -0.14633736	          1.89420303	          0.58376699	         18.78844913	         -1.92636443	         -0.57800457	          2.09754234	         -6.34342111	        -13.46196543	          4.98104092	          4.03472542	        -13.47032818	         15.82159792	         17.30851337	         37.51265097	         86.51662706	         86.51662706	          0.05000006	          0.05000019	          0.11578707	          0.05000028	          0.05000028	          0.05000027	          0.10348736	          0.05000476	          0.16783955	          0.05000048	          0.05945363	          0.12791068	          0.29466513	          0.35597523	          0.22420817	          0.11019813	          0.05000142	          0.07957993	          0.14576966	          0.06925999	          0.07867741	          0.12680587	          0.05000089	          0.05942301	          0.52397155	          0.23193274	          0.10812729	          0.05947388	          0.16648887	          0.16673625	          0.14348550	          0.06290578	          0.06618460	          0.05000131	          0.05853095	          0.05000864	          0.05844988	          0.50601960	          0.30625982	          0.20133200	          0.15967107	          0.43675710	          0.19561288	          0.05000003	          0.09168586	          0.08176836	          0.22499786	          0.08392412	          0.05791097	          0.24863791	          0.16487818	          0.08512518	          0.05001842	          0.05000232	          0.05000410	          0.05000035	          0.08983703	          0.19514890	          0.09130776	          0.07062399	          0.05942656	          0.05942335	          0.25937657	          0.09771688	          0.05014206	          0.05007107	          0.05010756	          0.05942120	          0.31297690	          0.55597663	          0.05942199	          0.05942325	          0.05941991	          0.18109511	          0.12225867	          0.14680036	          0.13665131	          0.22491030	          0.30755252	          0.25742129	          0.22389783	          0.21347898	          0.28198779	          0.05000007	          0.05000046	          0.13624325	          0.05000031	          0.05000011	          0.05000043	          0.06365263	          0.07061313	          0.05942231	
          0.58792378	         -2.91593523	          2.25855958	         -5.86617086	          0.74128209	          0.91794018	          0.00151860	         27.71402261	          3.99782871	         -2.25852946	        -16.47730443	         -1.67833922	          6.32083966	        -12.35793893	        -12.40172963	          4.12861754	         -3.46742052	         -3.86893656	         11.48506583	         -0.21388073	          1.16751112	          0.55844087	         20.29678999	         -1.70335600	         -0.80112697	          2.15699873	         -7.23944756	        -13.47186314	          4.78694894	          3.62771916	        -13.48035286	         16.06317226	         16.96660065	         38.67804418	         86.51662706	         86.51662706	          0.25717944	          0.26194913	          0.32973293	          0.40966932	          0.25384356	          0.22538899	          0.09561564	          0.05943329	          0.14296574	          0.07619039	          0.05002862	          0.10762942	          0.24794356	          0.29953250	          0.18865849	          0.12016891	          0.05000092	          0.06696521	          0.12265909	          0.14940140	          0.06620314	          0.10670030	          0.05000628	          0.05000145	          0.44089138	          0.19515808	          0.24494015	          0.05004384	          0.14009087	          0.14029906	          0.12073485	          0.05293165	          0.05569069	          0.05132212	          0.05000026	          0.05000094	          0.05000114	          0.57565930	          0.32745878	          0.16940948	          0.39669355	          0.50973671	          0.20811265	          0.06671856	          0.11180721	          0.06880329	          0.32186163	          0.07061735	          0.05000029	          0.32871417	          0.13873573	          0.07162798	          0.05000400	          0.05000049	          0.05000035	          0.05000194	          0.07562115	          0.16420651	          0.07683039	          0.05942616	          0.05000462	          0.05000161	          0.27454053	          0.08222810	          0.05000235	          0.05000357	          0.05000167	          0.05000110	          0.26335190	          0.51760103	          0.05000047	          0.05000212	          0.05000052	          0.15238095	          0.10287364	          0.12352403	          0.11498418	          0.18924881	          0.25878741	          0.21660489	          0.18839695	          0.17963030	          0.23727638	          0.05288118	          0.08080184	          0.16257870	          0.05000073	          0.09403057	          0.05000104	          0.06088178	          0.05941681	          0.05000046	
          0.59923000	         -2.90416519	          2.34579903	         -6.06005623	          0.75880242	          0.91707634	          0.00130403	         26.83360885	          4.24680149	         -1.98873883	        -16.10246270	         -1.95682883	          6.11655503	        -12.73675326	        -14.68557789	          3.76708412	         -4.46204433	         -4.27753815	         12.38014389	         -0.20584476	          0.38576943	          0.57986824	         21.62967645	         -1.48410274	         -1.02189252	          2.20558758	         -8.10375183	        -13.48329432	          4.67172508	          3.18604726	        -13.49747910	         16.25737757	         16.62645520	         39.80540740	         86.51662706	         86.51662706	          0.35952805	          0.36325257	          0.38244038	          0.34471390	          0.21926987	          0.24806898	          0.08881848	          0.09788557	          0.12142537	          0.06411059	          0.05000112	          0.09056391	          0.20863010	          0.25203997	          0.19326241	          0.16226770	          0.05000070	          0.05634951	          0.10324086	          0.23319701	          0.17027627	          0.15461182	          0.05000027	          0.05000028	          0.37098430	          0.16421424	          0.20610649	          0.05000012	          0.15670206	          0.17139864	          0.12252461	          0.05000008	          0.05000014	          0.05000002	          0.05000006	          0.05000028	          0.05000029	          0.63843610	          0.27555803	          0.14349152	          0.57084678	          0.54366019	          0.31658238	          0.08591681	          0.09407922	          0.05789397	          0.27082794	          0.05942049	          0.05000028	          0.27659398	          0.11673816	          0.06027088	          0.05000287	          0.05000029	          0.05000033	          0.05000018	          0.06363118	          0.15628872	          0.17644976	          0.05002737	          0.05011946	          0.08563707	          0.23101114	          0.06919926	          0.05000123	          0.05001086	          0.05000653	          0.05000552	          0.22159522	          0.45815786	          0.05000053	          0.05000158	          0.05000036	          0.12821966	          0.11616210	          0.10848706	          0.09974441	          0.15924176	          0.21775443	          0.18226030	          0.15852504	          0.15114862	          0.19965435	          0.12811962	          0.14551548	          0.13979567	          0.05001125	          0.17733185	          0.06160754	          0.08674422	          0.05000005	          0.05000009	
